# xmcd CD database file
#
# Track frame offsets:
#	150
#	19262
#	34800
#	53700
#	71700
#	94500
#	120937
#	136350
#	171292
#	192711
#
# Disc length: 2765 seconds
#
# Revision: 0
# Processed by: cddbd v1.5.2PL0 Copyright (c) Steve Scherf et al.
# Submitted via: CD2WAV32(JP) R3.22
#
DISCID=890acb0a
DTITLE=種ともこ - ヘテロ
DYEAR=1999
DGENRE=J-POP(J)
TTITLE0=かえして
TTITLE1=DOWN
TTITLE2=CUT THE FRUITS
TTITLE3=アメとガム
TTITLE4=メモリア
TTITLE5=No Joker
TTITLE6=かけっこ
TTITLE7=影の中の影
TTITLE8=抱いててほしい
TTITLE9=Tree
EXTD=
EXTT0=
EXTT1=
EXTT2=
EXTT3=
EXTT4=
EXTT5=
EXTT6=
EXTT7=
EXTT8=
EXTT9=
PLAYORDER=
